<svg xmlns="http://www.w3.org/2000/svg" xmlns:svg="http://www.w3.org/2000/svg" id="svg3935" width="152.182" height="149.834" version="1.1" viewBox="0 0 152.182 149.834"><metadata id="metadata3940"/><g id="layer1" transform="translate(0,-902.52825)"><g id="g273" transform="translate(-728.15805,300.0142)"><path id="path275" d="m 878.598,605.07 c 8.066,8.064 -14.297,43.508 -18.077,47.29 -3.78,3.774 -13.383,0.302 -21.448,-7.764 -8.066,-8.063 -11.541,-17.669 -7.761,-21.448 3.781,-3.783 39.22,-26.143 47.286,-18.078 z"/><path id="path277" d="m 765.474,613.603 c -12.314,-6.987 -29.839,-14.761 -35.414,-9.187 -5.648,5.647 2.41,23.566 9.47,35.904 6.283,-10.924 15.225,-20.122 25.944,-26.717 z"/><path id="path279" d="m 866.295,649.578 c 1.135,3.848 0.928,7.025 -0.908,8.86 -4.299,4.298 -15.901,-0.276 -26.362,-10.233 -0.729,-0.653 -1.454,-1.333 -2.167,-2.046 -3.78,-3.784 -6.725,-7.813 -8.607,-11.522 -3.663,-6.572 -4.58,-12.377 -1.81,-15.146 1.508,-1.508 3.923,-1.919 6.868,-1.389 1.92,-1.214 4.186,-2.568 6.674,-3.953 -10.111,-5.273 -21.603,-8.252 -33.799,-8.252 -40.441,0 -73.228,32.781 -73.228,73.226 0,40.44 32.786,73.225 73.228,73.225 40.442,0 73.229,-32.784 73.229,-73.225 0,-13.06 -3.427,-25.308 -9.416,-35.926 -1.295,2.362 -2.553,4.526 -3.702,6.381 z"/></g></g></svg>